<svg width="234" height="88" viewBox="0 0 234 88" fill="none" xmlns="http://www.w3.org/2000/svg">
<g filter="url(#filter0_d_920_35)">
<rect y="11.6914" width="230.076" height="75.5382" rx="14.3494" transform="rotate(-2.91278 0 11.6914)" fill="black" shape-rendering="crispEdges"/>
<path d="M24.1289 65.3036L22.355 30.4396L34.7821 29.8073C37.4945 29.6693 39.7667 30.0486 41.5987 30.9453C43.4307 31.842 44.833 33.1247 45.8054 34.7934C46.7772 36.4507 47.3174 38.3461 47.426 40.4797C47.5351 42.6247 47.185 44.5768 46.3756 46.3361C45.577 48.0835 44.3066 49.5022 42.5642 50.5921C40.8327 51.6701 38.6164 52.2779 35.9153 52.4153L27.3696 52.8501L27.1426 48.39L35.2117 47.9794C36.9254 47.8922 38.3007 47.5264 39.3374 46.882C40.3736 46.2262 41.1151 45.3692 41.5619 44.3111C42.0088 43.2529 42.1987 42.0656 42.1317 40.7491C42.0647 39.4326 41.7555 38.2764 41.2042 37.2804C40.6529 36.2844 39.8234 35.5244 38.7158 35.0005C37.6196 34.476 36.1976 34.2582 34.4498 34.3471L27.8447 34.6832L29.3891 65.036L24.1289 65.3036ZM58.9124 64.1141C57.2554 64.1984 55.7418 63.9682 54.3714 63.4235C53.0005 62.8674 51.8934 62.0192 51.0503 60.8787C50.2185 59.7377 49.759 58.3103 49.6718 56.5966C49.5968 55.1213 49.8187 53.8925 50.3376 52.9103C50.8566 51.9281 51.5842 51.1345 52.5206 50.5293C53.457 49.9241 54.5138 49.4493 55.691 49.105C56.8682 48.7606 58.0715 48.4832 59.3011 48.2727C60.858 48.0114 62.1216 47.7992 63.0918 47.6361C64.0615 47.4616 64.7607 47.2269 65.1894 46.932C65.6182 46.6371 65.8169 46.1832 65.7858 45.5704L65.7797 45.4512C65.704 43.9645 65.2255 42.8339 64.3441 42.0596C63.4741 41.2846 62.2163 40.939 60.5707 41.0227C58.857 41.1099 57.5258 41.5588 56.5771 42.3694C55.6392 43.1681 55.0064 44.0366 54.6786 44.9749L49.8396 44.1288C50.3262 42.5111 51.0895 41.1865 52.1293 40.1551C53.1799 39.1117 54.4089 38.3323 55.8164 37.817C57.2233 37.2902 58.7154 36.9868 60.2929 36.9065C61.337 36.8534 62.4499 36.9219 63.6316 37.1121C64.824 37.2904 65.9474 37.677 67.0017 38.2719C68.0673 38.8662 68.9599 39.7481 69.6794 40.9176C70.3982 42.0758 70.8062 43.6082 70.9032 45.5148L71.7867 62.8787L66.8158 63.1316L66.6339 59.5567L66.4297 59.5671C66.134 60.2421 65.6733 60.9141 65.0474 61.5831C64.4215 62.2522 63.6028 62.8229 62.5914 63.2954C61.58 63.7678 60.3537 64.0407 58.9124 64.1141ZM59.811 59.9721C61.2183 59.9005 62.4071 59.5613 63.3775 58.9544C64.3593 58.3469 65.0884 57.5816 65.5648 56.6584C66.052 55.7234 66.2694 54.7395 66.2168 53.7067L66.0453 50.3361C65.873 50.5269 65.5298 50.715 65.0158 50.9005C64.5126 51.074 63.9348 51.2343 63.2824 51.3812C62.6293 51.5169 61.993 51.646 61.3734 51.7685C60.7533 51.8797 60.2347 51.9744 59.8177 52.0525C58.8367 52.2276 57.9451 52.4834 57.143 52.8201C56.3522 53.1561 55.727 53.6146 55.2673 54.1956C54.8183 54.7646 54.617 55.503 54.6632 56.4109C54.7273 57.6707 55.2411 58.6003 56.2046 59.1999C57.1676 59.788 58.3697 60.0455 59.811 59.9721ZM74.3595 36.5321L79.4495 36.2731L80.8666 64.1235C80.9555 65.8712 80.7128 67.3627 80.1385 68.5981C79.5755 69.8328 78.6914 70.7937 77.4861 71.4809C76.2922 72.1674 74.793 72.5566 72.9885 72.6484C72.8069 72.6577 72.6367 72.6663 72.4778 72.6744C72.3076 72.6831 72.1314 72.6864 71.9492 72.6843L71.7266 68.3092C71.8855 68.3011 72.0273 68.2939 72.1522 68.2876C72.2657 68.2818 72.3962 68.2752 72.5437 68.2677C73.7467 68.2064 74.5984 67.8388 75.0989 67.1648C75.6113 66.5015 75.8367 65.5627 75.7749 64.3484L74.3595 36.5321ZM76.6737 32.3694C75.7885 32.4144 75.0131 32.158 74.3475 31.6002C73.6927 31.0305 73.3443 30.3314 73.3021 29.5029C73.2594 28.6631 73.5351 27.9322 74.1293 27.3103C74.7342 26.6765 75.4793 26.337 76.3645 26.292C77.2497 26.247 78.0197 26.5093 78.6745 27.079C79.3401 27.6368 79.6942 28.3357 79.737 29.1755C79.7791 30.004 79.4977 30.7351 78.8928 31.3689C78.2986 31.9908 77.5589 32.3243 76.6737 32.3694ZM92.3903 62.4107C90.7334 62.495 89.2197 62.2648 87.8494 61.7201C86.4784 61.164 85.3714 60.3158 84.5282 59.1753C83.6965 58.0343 83.237 56.6069 83.1498 54.8932C83.0747 53.4179 83.2966 52.1891 83.8156 51.2069C84.3345 50.2247 85.0622 49.431 85.9986 48.8259C86.9349 48.2207 87.9917 47.7459 89.1689 47.4016C90.3461 47.0572 91.5495 46.7798 92.779 46.5693C94.3359 46.308 95.5995 46.0958 96.5697 45.9327C97.5394 45.7582 98.2386 45.5235 98.6673 45.2286C99.0961 44.9337 99.2949 44.4798 99.2637 43.867L99.2576 43.7478C99.182 42.2611 98.7035 41.1305 97.8221 40.3561C96.952 39.5812 95.6942 39.2356 94.0486 39.3193C92.3349 39.4065 91.0037 39.8554 90.0551 40.666C89.1172 41.4647 88.4843 42.3332 88.1566 43.2715L83.3176 42.4254C83.8042 40.8077 84.5674 39.4831 85.6072 38.4517C86.6578 37.4083 87.8869 36.6289 89.2943 36.1136C90.7012 35.5868 92.1934 35.2833 93.7709 35.2031C94.815 35.15 95.9279 35.2185 97.1095 35.4087C98.3019 35.587 99.4253 35.9736 100.48 36.5685C101.545 37.1628 102.438 38.0447 103.157 39.2142C103.876 40.3724 104.284 41.9048 104.381 43.8114L105.265 61.1753L100.294 61.4282L100.112 57.8533L99.9076 57.8637C99.612 58.5387 99.1512 59.2107 98.5253 59.8797C97.8994 60.5488 97.0808 61.1195 96.0694 61.592C95.058 62.0644 93.8316 62.3373 92.3903 62.4107ZM93.289 58.2687C94.6962 58.1971 95.8851 57.8579 96.8555 57.251C97.8372 56.6435 98.5663 55.8782 99.0428 54.955C99.53 54.02 99.7473 53.0361 99.6948 52.0033L99.5233 48.6327C99.3509 48.8235 99.0078 49.0116 98.4938 49.1971C97.9906 49.3706 97.4128 49.5308 96.7603 49.6778C96.1073 49.8135 95.4709 49.9426 94.8514 50.0651C94.2312 50.1763 93.7126 50.271 93.2956 50.3491C92.3146 50.5241 91.423 50.78 90.6209 51.1167C89.8302 51.4527 89.2049 51.9112 88.7452 52.4922C88.2963 53.0612 88.0949 53.7996 88.1411 54.7075C88.2052 55.9673 88.719 56.8969 89.6826 57.4965C90.6455 58.0846 91.8476 58.3421 93.289 58.2687ZM113.398 51.8693L113.048 45.6575L113.933 45.6124L123.788 34.0171L129.883 33.707L118.641 46.9089L117.841 46.9496L113.398 51.8693ZM109.168 60.9767L107.394 26.1127L112.484 25.8537L114.258 60.7177L109.168 60.9767ZM125.681 60.1365L115.685 48.1858L119.011 44.4495L131.928 59.8186L125.681 60.1365ZM145.07 59.6278C142.732 59.7468 140.623 59.4502 138.744 58.7379C136.875 58.0251 135.372 56.9809 134.232 55.6052C133.103 54.2176 132.451 52.5782 132.275 50.6869L137.62 50.4149C137.741 51.4442 138.133 52.3232 138.796 53.0518C139.469 53.7685 140.327 54.3051 141.369 54.6617C142.412 55.0183 143.557 55.1649 144.805 55.1013C146.179 55.0315 147.381 54.7314 148.412 54.201C149.454 53.6701 150.255 52.9637 150.813 52.0819C151.371 51.1888 151.621 50.1805 151.564 49.0569C151.504 47.888 151.151 46.8762 150.505 46.0216C149.869 45.155 148.965 44.4956 147.793 44.0432C146.632 43.5903 145.246 43.4048 143.634 43.4868L140.689 43.6366L140.471 39.3467L143.416 39.1969C144.71 39.131 145.833 38.8406 146.785 38.3257C147.749 37.8101 148.487 37.124 149.001 36.2672C149.515 35.3991 149.743 34.4032 149.686 33.2797C149.631 32.2015 149.339 31.2777 148.811 30.5081C148.293 29.7266 147.58 29.1313 146.672 28.7224C145.775 28.3129 144.731 28.1385 143.539 28.1991C142.404 28.2569 141.354 28.5208 140.388 28.991C139.432 29.4492 138.668 30.0798 138.094 30.8827C137.52 31.6742 137.238 32.6046 137.246 33.6737L132.156 33.9327C132.117 32.0459 132.589 30.3606 133.572 28.8769C134.566 27.3927 135.916 26.2032 137.623 25.3085C139.33 24.4138 141.25 23.9122 143.383 23.8036C145.619 23.6899 147.571 24.0286 149.238 24.8199C150.916 25.5993 152.235 26.6871 153.193 28.0834C154.163 29.4791 154.686 31.0341 154.762 32.7483C154.872 34.6998 154.412 36.3844 153.38 37.8023C152.36 39.2196 150.954 40.2071 149.162 40.7648L149.176 41.0372C151.509 41.2712 153.349 42.0993 154.696 43.5213C156.054 44.9428 156.783 46.7546 156.884 48.9569C156.993 50.8743 156.547 52.6208 155.546 54.1964C154.556 55.7715 153.159 57.043 151.354 58.011C149.548 58.9676 147.453 59.5066 145.07 59.6278ZM173.125 58.2004C171.569 58.2568 170.023 58.051 168.485 57.583C166.96 57.1145 165.552 56.2759 164.261 55.0672C162.971 53.8585 161.902 52.2004 161.055 50.093C160.22 47.985 159.721 45.3251 159.557 42.1134C159.402 39.0718 159.566 36.3555 160.047 33.9643C160.54 31.5725 161.318 29.536 162.382 27.8548C163.445 26.1622 164.766 24.8491 166.346 23.9153C167.925 22.9816 169.725 22.4633 171.745 22.3605C173.822 22.2549 175.687 22.5696 177.34 23.3047C178.993 24.0398 180.356 25.1026 181.428 26.4932C182.511 27.8831 183.236 29.4904 183.602 31.315L178.41 31.5792C177.984 30.1445 177.226 28.994 176.135 28.1279C175.044 27.2617 173.659 26.8714 171.979 26.9569C169.426 27.0868 167.49 28.3003 166.174 30.5975C164.868 32.8941 164.311 36.023 164.501 39.9844L164.756 39.9714C165.307 38.9534 166.002 38.0761 166.841 37.3393C167.69 36.5906 168.65 36.0013 169.721 35.5714C170.802 35.1295 171.95 34.8777 173.164 34.8159C175.184 34.7131 177.036 35.1138 178.721 36.018C180.416 36.9103 181.796 38.1941 182.86 39.8695C183.923 41.5449 184.512 43.4948 184.625 45.7192C184.738 47.9436 184.336 49.9837 183.417 51.8396C182.51 53.6949 181.176 55.1964 179.414 56.3443C177.651 57.4808 175.555 58.0995 173.125 58.2004ZM172.883 53.7751C174.222 53.707 175.403 53.3169 176.425 52.605C177.446 51.8931 178.236 50.9654 178.792 49.822C179.348 48.6786 179.591 47.4203 179.521 46.0471C179.453 44.7079 179.09 43.5032 178.433 42.433C177.787 41.3622 176.925 40.5299 175.848 39.9361C174.783 39.3418 173.586 39.0784 172.258 39.1459C171.248 39.1973 170.321 39.4379 169.479 39.8676C168.647 40.2968 167.925 40.8683 167.313 41.5822C166.701 42.296 166.23 43.1051 165.9 44.0094C165.582 44.9017 165.447 45.8359 165.497 46.8119C165.563 48.117 165.925 49.3104 166.583 50.392C167.253 51.473 168.133 52.3271 169.223 52.9544C170.324 53.5697 171.544 53.8433 172.883 53.7751ZM200.061 56.8298C197.927 56.9384 195.989 56.6274 194.245 55.8969C192.512 55.1545 191.103 54.0883 190.02 52.6984C188.937 51.3084 188.314 49.6903 188.152 47.8438L193.259 47.584C193.46 49.0757 194.186 50.2733 195.438 51.1767C196.69 52.0802 198.156 52.4892 199.836 52.4037C201.175 52.3356 202.345 51.9688 203.347 51.3034C204.359 50.6261 205.133 49.7277 205.668 48.6082C206.214 47.488 206.451 46.23 206.38 44.8341C206.308 43.4155 205.937 42.1657 205.268 41.0847C204.598 40.0036 203.708 39.1728 202.598 38.5921C201.499 38.0109 200.257 37.7498 198.871 37.8089C197.816 37.8626 196.764 38.0981 195.716 38.5156C194.667 38.933 193.829 39.4536 193.201 40.0772L188.347 39.6074L189.411 21.9396L208.579 20.9643L208.809 25.4755L194.015 26.2282L193.405 36.0389L193.609 36.0285C194.257 35.3356 195.131 34.7393 196.232 34.2395C197.344 33.7392 198.547 33.4561 199.841 33.3902C201.964 33.2823 203.879 33.6911 205.587 34.6169C207.307 35.5421 208.688 36.8543 209.73 38.5535C210.783 40.2408 211.361 42.214 211.465 44.473C211.591 46.7309 211.183 48.7713 210.24 50.5943C209.309 52.4167 207.961 53.8848 206.198 54.9986C204.444 56.1004 202.399 56.7109 200.061 56.8298Z" fill="white"/>
</g>
<defs>
<filter id="filter0_d_920_35" x="0" y="-6.10352e-05" width="233.618" height="87.132" filterUnits="userSpaceOnUse" color-interpolation-filters="sRGB">
<feFlood flood-opacity="0" result="BackgroundImageFix"/>
<feColorMatrix in="SourceAlpha" type="matrix" values="0 0 0 0 0 0 0 0 0 0 0 0 0 0 0 0 0 0 127 0" result="hardAlpha"/>
<feMorphology radius="3.18876" operator="erode" in="SourceAlpha" result="effect1_dropShadow_920_35"/>
<feOffset dy="0.797189"/>
<feGaussianBlur stdDeviation="0.797189"/>
<feComposite in2="hardAlpha" operator="out"/>
<feColorMatrix type="matrix" values="0 0 0 0 0 0 0 0 0 0 0 0 0 0 0 0 0 0 0.25 0"/>
<feBlend mode="normal" in2="BackgroundImageFix" result="effect1_dropShadow_920_35"/>
<feBlend mode="normal" in="SourceGraphic" in2="effect1_dropShadow_920_35" result="shape"/>
</filter>
</defs>
</svg>
