<svg width="235" height="175" viewBox="0 0 235 175" fill="none" xmlns="http://www.w3.org/2000/svg">
<path d="M150.467 2.19995C144.2 4.59996 137.4 11 132.867 18.7333C130.467 22.8666 128.733 24.3333 127.267 23.9333C110.333 18.8666 107.133 18.4666 98.3335 19.9333C81.6668 22.8666 69.4001 34.6 60.7335 56.3333C57.5335 64.3333 56.2001 66.2 54.2001 65.9333C52.7335 65.6666 47.2668 65.1333 41.9335 64.7333C33.0001 64.0666 31.6668 64.3333 23.6668 68.2C9.93347 75 1.6668 87.6666 0.600137 103.667C-0.333197 119.133 5.6668 145.667 10.2001 145.667C11.6668 145.667 12.2001 141.667 12.6001 122.6C13.0001 100.067 13.1335 99.5333 17.0001 92.4666C23.5335 80.6 33.9335 75.9333 46.7335 79L53.2668 80.4666L54.0668 99.4C55.2668 126.067 59.5335 143.267 68.6001 157C78.6001 172.067 88.2001 177.267 97.2668 172.733C105.133 168.867 107.533 164.333 108.067 152.6C109.267 127.133 94.4668 93.4 76.0668 79.4C73.2668 77.4 70.7335 74.7333 70.3335 73.5333C68.3335 67.5333 82.0668 42.8666 90.2001 37.6666C97.8001 33.1333 109.933 32.6 117.667 36.6L123.667 39.6666L123.267 55C122.333 81.8 127.4 107.667 137.267 128.2C144.467 143.267 154.467 154.333 162.2 155.667C177 158.467 185.133 143.533 181.8 119.533C177.667 89.9333 165.133 61.6666 146.6 40.0666L140.067 32.3333L143 26.3333C146.467 19 152.2 14.0666 158.333 12.8666C180.467 8.73329 219.267 68.3333 227.667 119.667C230.6 137.8 232.2 143.267 233.933 142.2C235.8 141 234.467 120.467 231.533 103.667C224.6 63.4 196.733 15.1333 174.333 4.3333C166.467 0.466629 157.267 -0.333374 150.467 2.19995ZM144.2 60.3333C151.8 71.1333 160.867 90.6 164.333 103.667C168.067 117.533 169.267 137.4 166.6 140.867C164.867 143.267 164.467 143.133 159.133 137.533C146.6 124.333 137.933 98.2 136.733 69.2666C136.2 58.4666 136.467 52.3333 137.267 52.3333C138.067 52.3333 141.133 55.9333 144.2 60.3333ZM75.0001 97.2666C85.9335 109.667 95.0001 133.267 95.0001 149.133C95.0001 158.2 94.0668 160.333 90.3335 160.333C84.3335 160.333 74.8668 144.867 70.3335 127.667C67.6668 117.8 65.9335 91 68.0668 91C68.8668 91 71.9335 93.8 75.0001 97.2666Z" fill="black"/>
</svg>
